<?xml version="1.0" standalone="no"?>
<!DOCTYPE svg PUBLIC "-//W3C//DTD SVG 20010904//EN"
 "http://www.w3.org/TR/2001/REC-SVG-20010904/DTD/svg10.dtd">
<svg version="1.0" xmlns="http://www.w3.org/2000/svg"
 width="640.000000pt" height="1280.000000pt" viewBox="0 0 640.000000 1280.000000" transform="rotate(180) scale(1.35, 1.15)"
 preserveAspectRatio="xMidYMid meet">
<metadata>
Created by potrace 1.15, written by Peter Selinger 2001-2017
</metadata>
<g transform="translate(0.000000,1280.000000) scale(0.100000,-0.100000)"
fill="blue" stroke="none">
<path d="M2243 11018 c4 -459 10 -715 17 -722 29 -29 31 16 21 525 -15 726
-21 909 -34 909 -7 0 -8 -221 -4 -712z"/>
<path d="M4124 11338 c-5 -216 -9 -539 -9 -718 0 -282 2 -325 15 -325 13 0 15
88 18 718 1 394 -2 717 -6 717 -5 0 -13 -177 -18 -392z"/>
<path d="M3119 11551 c-20 -16 -25 -31 -29 -88 l-5 -68 -387 -3 c-363 -2 -388
-3 -397 -20 -11 -22 -8 -754 4 -789 l7 -23 687 0 c944 -1 1084 0 1091 6 3 3 6
190 8 415 l3 409 -193 2 c-106 1 -243 0 -304 -1 -61 -2 -152 0 -203 4 l-91 7
0 60 c0 49 -4 63 -25 83 -20 21 -34 25 -83 25 -44 0 -66 -5 -83 -19z"/>
<path d="M1157 11143 c-4 -3 -7 -14 -7 -23 0 -8 -13 -31 -30 -50 l-29 -35 -1
-626 0 -626 37 -45 36 -45 169 -8 c216 -9 618 3 618 19 0 6 12 25 28 41 l27
29 5 316 5 315 41 3 c25 2 47 -2 55 -10 28 -27 106 -88 113 -88 8 0 8 267 0
296 -6 21 -10 22 -110 16 l-104 -5 0 208 0 207 -29 37 c-16 20 -30 45 -32 56
-4 20 -13 20 -395 23 -215 1 -393 -1 -397 -5z"/>
<path d="M4457 11143 c-4 -3 -7 -14 -7 -23 0 -9 -9 -25 -21 -36 -39 -36 -42
-52 -40 -256 l2 -198 -58 -2 c-32 -1 -80 -3 -108 -3 l-50 0 -3 -83 c-2 -46 -2
-117 0 -159 3 -68 5 -75 18 -62 8 8 37 31 64 52 39 30 58 37 92 37 l44 0 -1
-177 c-1 -130 -4 -166 -10 -134 -10 54 -11 55 -35 34 -43 -38 -54 -66 -54
-133 0 -85 7 -94 60 -87 l43 5 -5 -68 c-5 -64 -3 -71 19 -92 14 -13 29 -33 33
-44 8 -20 18 -22 184 -29 97 -4 275 -4 397 0 212 7 221 9 229 29 4 11 19 31
32 42 l25 21 2 630 2 629 -21 19 c-12 11 -31 37 -41 58 l-19 37 -384 0 c-210
0 -386 -3 -389 -7z"/>
<path d="M2318 10523 c-13 -3 -15 -12 -11 -41 3 -20 8 -40 12 -43 3 -3 47 -3
96 1 50 5 178 13 285 19 269 16 297 19 304 38 3 8 4 19 0 24 -5 9 -652 11
-686 2z"/>
<path d="M3029 10507 c-7 -15 -8 -44 -2 -83 7 -53 11 -59 33 -62 15 -2 34 5
47 17 18 17 21 30 19 83 l-2 63 -42 3 c-36 3 -43 0 -53 -21z"/>
<path d="M3269 10518 c0 -7 0 -40 1 -73 1 -68 17 -88 65 -83 l30 3 0 80 0 80
-47 3 c-34 2 -48 -1 -49 -10z"/>
<path d="M3393 10514 c-11 -29 15 -37 144 -45 70 -4 211 -13 313 -19 102 -7
196 -13 210 -14 23 -1 25 2 25 44 l0 45 -343 3 c-305 2 -343 1 -349 -14z"/>
<path d="M3172 10488 c-19 -60 -32 -131 -67 -353 -47 -295 -53 -338 -61 -420
-9 -103 -16 -115 -62 -115 -34 0 -48 8 -108 63 -38 34 -85 78 -104 97 -19 19
-78 73 -130 120 -52 47 -119 110 -150 140 -30 30 -102 98 -160 150 -57 52
-120 111 -140 130 -78 78 -130 110 -130 80 0 -9 188 -196 364 -360 173 -162
419 -410 414 -416 -8 -7 -174 146 -408 376 -174 171 -397 380 -405 380 -3 0
-5 -12 -5 -27 0 -29 39 -69 390 -403 251 -238 333 -321 327 -327 -10 -9 -46
23 -270 239 -122 118 -253 243 -291 278 -38 36 -88 82 -110 104 -37 35 -41 37
-44 18 -5 -34 18 -65 118 -159 201 -188 491 -478 481 -481 -6 -2 -62 45 -124
105 -61 60 -152 147 -202 193 -49 47 -93 89 -96 94 -14 18 -31 -7 -25 -37 5
-22 49 -73 159 -184 83 -85 154 -159 156 -165 8 -22 -31 10 -161 136 -109 106
-134 126 -136 108 -5 -33 23 -77 85 -129 32 -26 62 -53 68 -58 34 -35 46 -55
40 -65 -5 -7 -44 24 -106 86 -55 53 -103 94 -106 90 -4 -4 -44 -55 -88 -113
l-80 -107 -75 -11 c-41 -7 -118 -18 -170 -24 -52 -7 -112 -17 -133 -22 l-38
-10 4 -1837 c2 -1010 8 -1845 12 -1855 7 -16 37 -17 468 -17 253 1 464 -3 468
-7 4 -4 10 -96 13 -203 3 -107 7 -208 10 -225 17 -101 35 -357 56 -795 5 -113
13 -254 16 -315 3 -60 8 -195 10 -300 2 -104 6 -199 9 -210 4 -11 10 -126 15
-255 5 -129 14 -334 19 -455 6 -121 13 -276 16 -345 3 -69 9 -219 15 -335 5
-115 14 -327 20 -470 6 -143 14 -305 19 -360 5 -55 9 -127 10 -160 3 -92 21
-120 105 -159 129 -62 187 -76 315 -76 65 0 138 6 166 14 92 24 201 76 234
110 29 30 33 42 36 97 4 57 16 306 30 599 3 58 9 215 14 350 5 135 11 254 14
265 4 11 9 101 11 200 3 99 10 281 15 405 6 124 20 443 31 710 11 267 26 577
32 690 5 113 14 275 18 360 4 85 14 223 23 305 9 83 21 242 27 355 6 112 12
205 14 207 1 1 205 3 452 4 247 0 456 5 465 10 24 12 29 127 27 574 0 215 0
1005 2 1757 l3 1366 -39 10 c-22 6 -73 15 -114 21 -251 34 -252 34 -277 59
-13 13 -48 59 -78 101 -30 43 -61 84 -69 90 -12 10 -31 -4 -106 -78 -79 -79
-120 -108 -120 -84 0 3 47 52 105 108 98 95 129 141 99 152 -6 2 -75 -60 -154
-137 -133 -130 -160 -152 -160 -132 0 4 72 78 160 165 155 152 160 159 160
198 0 22 -4 39 -9 37 -5 -1 -100 -91 -210 -198 -111 -107 -209 -196 -219 -198
-17 -3 124 139 431 434 147 143 167 165 167 194 l0 31 -27 -21 c-16 -12 -134
-124 -263 -248 -129 -125 -274 -265 -322 -311 -48 -47 -91 -81 -95 -77 -7 7
141 155 402 405 313 299 305 290 305 329 l0 36 -62 -59 c-33 -33 -100 -98
-147 -145 -48 -47 -174 -168 -281 -270 -107 -102 -220 -211 -252 -242 -53 -54
-78 -70 -78 -50 0 5 64 69 142 143 78 74 206 197 284 274 78 77 192 186 253
243 105 98 128 131 78 116 -23 -7 -66 -44 -232 -203 -55 -53 -143 -134 -195
-181 -52 -47 -128 -118 -169 -158 -149 -146 -270 -253 -275 -244 -5 8 171 181
358 353 33 30 79 72 101 94 23 22 85 82 138 133 l96 92 -237 1 c-130 1 -267 0
-304 -1 -58 -1 -68 1 -78 19 -6 12 -9 25 -6 30 14 23 -24 31 -113 24 -50 -3
-91 -9 -91 -12 0 -7 33 -227 60 -403 12 -73 25 -160 29 -193 5 -33 12 -77 16
-97 7 -36 6 -38 -18 -38 -23 0 -25 4 -31 63 -4 34 -11 94 -16 132 -5 39 -17
124 -26 190 -9 66 -25 172 -36 235 -11 63 -22 124 -24 135 -6 38 -31 121 -43
143 -16 31 -28 28 -39 -10z"/>
<path d="M2835 10450 c-491 -30 -525 -33 -525 -50 0 -13 112 -13 330 0 96 6
217 13 268 16 82 5 92 8 92 25 0 14 -6 19 -22 17 -13 -1 -77 -5 -143 -8z"/>
<path d="M3392 10443 c4 -22 56 -31 183 -33 50 0 133 -5 185 -10 52 -5 147
-10 210 -11 94 -2 115 0 115 12 0 16 -38 20 -365 38 -107 7 -226 14 -263 16
-62 5 -68 3 -65 -12z"/>
<path d="M2945 10399 c-22 -4 -87 -9 -145 -9 -183 -3 -166 -18 21 -19 97 -1
178 2 182 5 7 7 -2 34 -12 33 -3 -1 -24 -5 -46 -10z"/>
<path d="M3390 10380 c0 -6 65 -10 178 -9 108 0 169 4 157 9 -29 12 -335 12
-335 0z"/>
<path d="M2343 10353 c-27 -3 -33 -9 -33 -28 l0 -23 258 -4 c141 -2 265 -1
275 1 10 2 17 13 17 27 l0 24 -192 0 c-106 0 -215 2 -243 4 -27 2 -65 2 -82
-1z"/>
<path d="M3765 10350 c-222 -5 -230 -6 -230 -25 0 -19 8 -20 278 -23 l277 -2
0 24 c0 25 -25 37 -70 34 -14 -1 -128 -5 -255 -8z"/>
<path d="M2893 10339 c-6 -8 -13 -25 -15 -39 l-3 -25 -304 -5 -304 -5 138
-130 c76 -71 161 -152 190 -180 28 -27 93 -88 145 -135 52 -47 102 -92 110
-100 8 -8 40 -36 71 -62 l57 -48 11 63 c20 106 38 218 50 302 7 44 16 105 21
135 26 168 33 220 29 224 -2 2 -45 7 -94 11 -71 6 -93 4 -102 -6z"/>
<path d="M2022 10033 l3 -118 37 -3 36 -3 7 53 c4 31 2 71 -4 94 -10 39 -53
94 -72 94 -6 0 -9 -45 -7 -117z"/>
<path d="M2120 9976 c0 -150 19 -239 36 -171 11 45 -6 233 -22 239 -11 4 -14
-9 -14 -68z"/>
<path d="M4246 10009 c-8 -40 -8 -192 0 -213 16 -42 24 -5 24 114 0 124 -10
166 -24 99z"/>
<path d="M2114 5496 c-3 -7 -4 -38 -2 -67 l3 -54 161 -3 c161 -2 162 -2 168
20 3 13 6 37 6 55 0 64 3 63 -171 63 -126 0 -161 -3 -165 -14z"/>
<path d="M3950 5440 l0 -70 163 2 162 3 0 65 0 65 -162 3 -163 2 0 -70z"/>
<path d="M2280 5339 c0 -6 15 -37 33 -68 19 -31 60 -103 93 -161 32 -58 74
-130 92 -160 19 -30 42 -67 51 -82 9 -16 19 -28 23 -28 4 0 4 55 1 123 -6 130
-14 158 -73 247 -16 25 -38 62 -50 82 -11 21 -29 42 -39 48 -27 14 -131 13
-131 -1z"/>
<path d="M3977 5339 c-9 -5 -27 -29 -38 -51 -12 -23 -41 -71 -65 -107 l-43
-66 -9 -135 c-5 -74 -6 -139 -2 -143 4 -5 40 49 80 120 98 174 185 323 204
350 9 12 16 27 16 32 0 14 -119 14 -143 0z"/>
<path d="M3773 3886 l-2 -143 100 -64 c54 -35 117 -75 139 -89 54 -34 224
-152 230 -160 3 -3 21 -17 40 -30 19 -13 37 -27 40 -30 3 -3 25 -21 50 -40 73
-57 104 -90 94 -99 -5 -6 -40 -4 -84 4 -73 13 -137 22 -305 44 -44 6 -128 17
-186 26 -59 8 -113 15 -122 15 -15 0 -29 -53 -20 -77 2 -6 43 -16 91 -22 162
-21 237 -31 312 -42 41 -5 132 -13 202 -16 70 -3 128 -10 128 -15 0 -4 -10 -8
-22 -9 -13 0 -77 -5 -143 -11 -66 -5 -219 -12 -340 -14 -121 -3 -224 -9 -228
-13 -14 -14 -10 -113 5 -123 7 -5 29 -6 48 -3 19 3 118 9 220 14 102 5 248 13
324 17 199 10 174 -6 -99 -66 -130 -28 -366 -60 -475 -64 -34 -2 -35 -3 -38
-45 -2 -24 0 -47 5 -52 8 -8 37 -5 228 22 207 30 406 91 528 162 l47 28 0 169
c0 99 -4 170 -9 170 -10 0 -186 135 -229 176 -15 14 -139 137 -277 275 l-250
249 -2 -144z"/>
<path d="M2556 3967 c-23 -24 -48 -52 -57 -63 -31 -37 -345 -340 -419 -404
-41 -36 -83 -73 -95 -83 -11 -10 -40 -31 -65 -47 -25 -16 -51 -34 -57 -40 -14
-12 -19 -316 -5 -336 14 -21 156 -86 272 -124 150 -49 502 -112 530 -95 16 10
11 61 -9 86 -15 19 -26 22 -72 21 -53 -2 -276 22 -354 38 -54 11 -211 49 -260
62 -81 23 -61 30 70 24 72 -3 218 -10 325 -15 107 -5 205 -12 217 -16 13 -4
34 -4 47 -1 20 5 26 14 32 53 12 78 15 77 -227 85 -402 14 -514 22 -505 37 3
4 61 11 128 14 68 4 148 11 178 16 30 5 102 14 160 21 58 7 138 17 179 24 73
11 74 11 76 42 4 52 -3 56 -81 44 -38 -6 -105 -15 -149 -20 -44 -5 -116 -14
-160 -20 -256 -36 -335 -44 -335 -32 0 5 17 22 38 38 20 15 39 31 42 34 3 3
25 21 50 40 25 19 47 37 50 40 9 10 243 175 318 223 218 142 214 139 208 161
-3 12 -6 69 -6 129 0 73 -4 107 -11 107 -7 0 -30 -20 -53 -43z"/>
<path d="M1079 3808 c-12 -23 -28 -48 -35 -56 -12 -11 -14 -120 -14 -641 l0
-628 22 -29 c12 -16 25 -31 28 -34 4 -3 9 -12 12 -21 8 -22 245 -33 490 -23
l178 7 22 36 c12 20 28 42 35 49 7 8 13 37 13 68 l0 54 53 0 c28 0 69 3 90 6
l37 7 0 108 c0 106 0 108 -27 128 -16 12 -32 24 -38 29 -5 4 -26 19 -45 32
-77 54 -70 11 -70 447 0 255 -4 394 -10 398 -6 4 -22 29 -35 56 l-25 49 -330
0 -330 0 -21 -42z"/>
<path d="M4633 3843 c-7 -2 -13 -12 -13 -22 0 -9 -11 -32 -25 -51 l-25 -34 0
-390 0 -391 -76 -55 c-112 -82 -104 -67 -104 -190 0 -125 -5 -120 113 -120
l67 0 0 -57 c0 -43 5 -63 23 -87 13 -17 26 -38 29 -47 8 -21 250 -32 498 -23
152 6 180 10 185 23 2 9 16 28 30 43 l26 28 0 636 c0 554 -2 638 -15 653 -8 9
-22 33 -31 54 l-15 37 -328 -1 c-180 0 -333 -3 -339 -6z"/>
<path d="M1306 2243 c-17 -5 -18 -15 -12 -211 4 -114 10 -355 14 -535 l7 -329
30 -24 c17 -14 53 -36 81 -50 47 -23 60 -24 170 -22 l119 3 9 58 8 58 496 -1
c272 -1 498 2 501 7 8 9 -6 364 -15 372 -2 3 -69 4 -148 2 l-144 -2 -102 153
c-139 208 -129 199 -215 197 -144 -4 -204 16 -555 183 -47 22 -99 46 -116 54
-24 10 -33 22 -38 48 -8 43 -32 54 -90 39z"/>
<path d="M5014 2213 c-22 -35 -30 -42 -80 -75 -143 -93 -371 -178 -579 -218
-147 -28 -166 -41 -261 -187 -99 -152 -118 -163 -277 -163 l-114 0 -13 -92
c-7 -51 -13 -127 -14 -168 l-1 -75 35 -18 c32 -16 68 -17 435 -14 220 2 425 1
455 -2 54 -6 55 -6 70 -51 14 -39 20 -45 55 -53 22 -5 85 -6 139 -3 86 5 104
9 138 32 22 15 43 35 48 44 11 20 28 375 36 760 l7 306 -30 2 c-24 2 -35 -4
-49 -25z"/>
</g>
</svg>
